Patient4_TMGait_0pt4_03_left_01_EMG.mot
version=1
nRows=26
nColumns=33
inDegrees=no
endheader
time	1LAddLong	2LGlutMax	3LGlutMed	4LIliopsoas	5LSemiMemb	6LBicFemLong	7LRecFem	8LVastMed	9LVastLat	10LGasMed	11LTibAnt	12lTibPost	13LPeroneusLong	14LSol	15LExtDigLong	16LFlexDigLong	17RAddLong	18RGlutMax	19RGlutMed	20RIliopsoas	21RSemiMemb	22RBicFemLong	23RRecFem	24RVastMed	25RVastLat	26RGasMed	27RTibAnt	28RTibPost	29RPeroneusLong	30RSol	31RExtDigLong	32RFlexDigLong
0.83	0.007324	-0.15823	0.045013	0.003052	-0.003815	0.064392	-0.027771	0.002594	-0.22537	0.017242	0.11932	0.005646	-0.018616	-0.13489	-0.059814	-0.007172	0.002136	0.18906	0.20111	0.018616	0.091858	0.071564	-0.009918	-0.089569	-0.052795	-0.015564	0.056	0.11978	0.27802	-0.32776	-0.007172	-0.002747
0.831	0.006104	-0.17044	0.018768	0.001984	-0.003967	0.049133	-0.037689	0.005341	-0.22201	-0.045929	-0.089264	0.015717	0.072784	-0.11108	-0.055695	-0.000916	-0.007782	0.18295	0.15182	0.018158	0.19882	0.064545	-0.022583	-0.041046	-0.10361	0.031433	-0.04364	0.059967	0.74829	-0.016327	-0.007324	-0.002899
0.832	0.011444	-0.1564	-0.027618	0.007629	0.013123	0.027924	-0.047913	0.008087	-0.21561	-0.0354	-0.075073	-0.011444	0.04303	-0.10498	0.089111	0.006561	-0.010071	0.20142	0.10117	0.019989	0.082397	0.052795	-0.28	-0.01709	-0.06958	0.020294	-0.013275	0.007629	-1.2325	-0.12299	-0.007019	-0.006714
0.833	0.018921	-0.15793	-0.04364	-0.00473	0.010223	0.057526	-0.033417	0.005493	-0.21484	-0.003815	0.12146	-0.001373	0.037689	-0.13397	0.055084	0.001068	-0.00946	0.19943	0.25803	0.017242	0.013428	0.049591	-0.26596	0.034485	-0.007782	0.02655	0.089874	-0.016632	-2.9077	-0.49927	-0.004883	-0.006866
0.834	0.021667	-0.17059	-0.035706	0.005188	-0.021667	0.052948	-0.054932	0.011444	-0.21179	0.011139	0.19959	0.006104	0.065155	-0.1561	0.10086	0.002899	-0.00351	0.20111	0.31143	-0.008392	-0.021362	0.039215	-0.038757	0.15198	0.22766	0.029449	0.044556	-0.00946	0.40161	-0.2002	0.000305	-0.014496
0.835	0.021973	-0.14969	-0.034943	0.00824	-0.016479	0.041656	-0.051575	0.006409	-0.2092	0.027771	0.043488	0.009308	0.058289	-0.11688	0.049896	0.008698	0.001068	0.20279	0.16632	-0.065155	-0.016479	0.033569	0.019379	0.12344	0.15625	0.007629	-0.018463	-0.001831	0.91873	0.04303	-0.001221	-0.013885
0.836	0.025482	-0.1535	-0.077515	0.00824	0.044556	0.043945	-0.062561	0.004578	-0.17868	0.035706	-0.20889	0.000305	0.022888	-0.062714	0.036774	-0.004883	-0.008087	0.19089	0.21896	-0.070343	0.056152	0.001678	-0.027466	0.074005	0.10925	-0.007324	0.071106	-0.040588	-1.028	-0.23117	-0.001984	-0.019531
0.837	0.023193	-0.18539	-0.062866	0.005798	0.051575	0.043945	-0.055695	0.004272	-0.13886	-0.001221	-0.083771	0.008698	0.007324	0.002441	0.11383	0.001526	-0.011444	0.16525	0.26047	-0.082855	-0.029755	-0.010223	-0.06134	0.035248	0.089874	-0.002441	0.056	-0.009766	-0.42801	-0.32715	-0.002899	-0.002747
0.838	0.008087	-0.18066	-0.019531	0	0.001526	0.02533	-0.066986	0.004272	-0.09079	-0.032349	-0.1181	0.007477	0.062256	-0.008545	0.066681	-0.006104	0.002747	0.18005	0.13504	-0.023041	-0.045624	0.006256	-0.13641	-0.042114	0.15289	-0.008545	-0.037994	0.009918	-0.38559	0.24307	-0.003052	0.004425
0.839	0.005188	-0.16464	0.063171	0.00061	-0.000763	0.041046	-0.064697	0.004883	-0.067444	-0.03479	-0.010834	0.007019	0.043488	-0.13596	0.26199	-0.000916	-0.003967	0.088501	0.27741	-0.099335	0.023041	-0.011292	-0.24063	-0.065918	0.14984	-0.009766	-0.067139	-0.00412	0.076447	0.1712	0.003357	-0.00946
0.84	0	-0.17288	0.082092	0.008087	-0.053711	0.046539	-0.06424	0.011902	-0.057373	-0.029602	-0.020142	0.005493	0.029449	-0.15137	0.31723	-0.001984	0.011292	0.049744	0.46417	-0.11963	-0.027313	-0.048523	-0.11566	-0.026855	0.15076	-0.010071	-0.080872	-0.028229	-0.18036	0.016174	-0.002594	0.004883
0.841	-0.010529	-0.17532	0.084534	0.003052	-0.095215	0.03418	-0.08255	0.010071	-0.031281	-0.05661	-0.042267	0.004425	0.058289	-0.09491	-0.030365	-0.007477	0.017853	0.062714	0.30212	-0.030365	-0.062256	-0.033264	-0.084229	-0.029907	0.10498	0.002289	-0.13092	-0.044556	0.64545	-0.20508	-0.005341	-0.001373
0.842	0.007782	-0.16525	0.050659	0.006104	-0.10162	-0.020142	-0.070038	0.00946	0.009918	-0.036316	0.051575	0.007935	0.027466	-0.10284	-0.14038	0	0.024719	0.053406	0.19073	0.060883	-0.07019	0.024567	-0.071716	-0.036163	0.06485	-0.026398	0.035706	-0.000305	-0.050659	0.026855	-0.002899	-0.016327
0.843	0.024261	-0.16296	-0.013733	-0.001678	0.018005	-0.057373	-0.076141	0.005493	0.04303	-0.033112	0.011749	0.005493	0.007019	-0.11383	-0.16296	0.009613	0.015411	0.039368	0.19119	0.17425	-0.030518	0.034485	-0.10696	-0.000305	0.064697	-0.016937	0.072327	0.033112	-0.21805	0.13672	0.000305	-0.008698
0.844	0.027924	-0.13779	-0.045929	-0.005951	0.073547	-0.035553	-0.076904	0.004425	0.056152	-0.038757	-0.03006	0.005646	0.00946	-0.11627	-0.11444	0.006256	-0.010681	0.022125	0.25986	0.22003	0.044861	0.022888	-0.097809	0.050964	0.049896	-0.001221	0.045624	-0.010223	0.28076	0.16785	-0.002441	-0.014496
0.845	0.035706	-0.11017	-0.094299	-0.006256	0.046997	-0.011902	-0.073395	0.004883	0.081024	-0.032654	-0.026855	0.010834	0.03418	-0.10864	-0.043182	-0.001678	-0.001373	-0.010376	0.20233	0.12161	-0.015564	0.00885	-0.069122	0.040741	0.033417	-0.025787	0.021057	-0.011597	0.068512	0.12268	-0.001678	-0.012054
0.846	0.03067	-0.1001	-0.1294	0.015869	0.015411	0.021973	-0.067902	0.001526	0.077057	-0.027618	0.009918	0.006714	0.037384	-0.05127	0.052032	0.005951	-0.001678	-0.020294	0.26657	0.074463	-0.056152	-0.016174	-0.026093	-0.015717	-0.002747	-0.016022	-0.007019	-0.022888	0.35782	-0.050659	0.000305	-0.01236
0.847	0.024719	-0.097656	-0.026093	0.007782	0.017395	0.039063	-0.052795	0.002899	0.082855	-0.045624	0.028992	0.001526	-0.001984	0.025482	0.06134	0.015869	0.003357	-0.066528	0.28992	0.094757	-0.028839	0.035095	0.015106	-0.05661	-0.02182	0.031433	0.000153	-0.033417	0.36728	-0.071869	-0.001678	-0.007172
0.848	0.0177	-0.086517	0.066986	0.010223	0.012054	0.00885	-0.063782	0.007477	0.10178	-0.038147	0.053406	0.007782	-0.003967	0.037537	0.032501	0.020294	0.00824	-0.083313	0.36758	0.12039	0.066528	0.043945	0.042572	-0.018158	-0.027924	0.050812	0.032196	-0.015259	0.25681	0.046844	-0.00061	-0.00885
0.849	0.012207	-0.076447	0.078735	0.001373	-0.010834	0.015259	-0.073395	0.003815	0.11673	-0.031738	0.099792	0.002441	0.001373	0.038605	0.043335	0.012207	-0.001831	-0.066071	0.35004	0.059509	0.03418	0.021973	0.13641	-0.005035	-0.015106	0.022278	0.092163	0.033417	0.014496	-0.054169	-0.001373	-0.008392
0.85	0.016937	-0.039368	0.05661	0.007172	0.012665	0.013885	-0.070496	0.003052	0.11017	-0.033875	0.11139	0.000153	0.048981	-0.032043	0.075378	0.015717	0.000305	-0.041656	0.32135	-0.041962	0.020142	0.013428	0.059814	0.010834	-0.012665	-0.013428	0.17853	0.011444	-0.53223	-0.069122	-0.002136	-0.018768
0.851	0.002899	-0.014191	0.075531	0.015259	-0.024109	0.000916	-0.05249	-0.002289	0.12238	-0.066223	0.03952	0.005646	0.075989	-0.19714	0.010834	0.010986	-0.001984	-0.076447	0.39215	-0.066376	-0.011292	0.07019	0.049591	0.02182	-0.010834	-0.022278	0.1564	0	-0.71091	0.10468	-0.002289	-0.018463
0.852	0.003815	-0.016022	0.041656	0.005646	0.005798	0.019073	-0.055389	0.000153	0.13077	-0.012817	-0.040436	-0.001831	0.082397	-0.18967	-0.058136	0.008545	-0.003357	-0.077057	0.36285	-0.032959	0.003967	0.11322	-0.052185	-0.027008	0.005035	-0.013123	0.001831	-0.00885	0.32654	0.050049	-0.000305	-0.014343
0.853	0.004578	-0.034943	0.005188	0.003662	-0.00061	0.033417	-0.059509	-0.002899	0.1268	-0.05188	-0.027313	0.005646	0.027618	-0.076599	0.011139	0.008698	-0.000305	-0.084076	0.48096	0.060883	0.012665	0.067444	-0.17227	-0.078583	0.02533	-0.007782	-0.021667	-0.014191	0.4689	0.18982	-0.002594	-0.021057
0.854	0.00061	-0.030975	0.015564	-0.006104	-0.008545	0.04837	-0.050964	0.007477	0.14084	-0.003357	-0.009766	0.000305	0.008392	-0.083618	-0.024567	-0.003815	0.001526	-0.018768	0.73151	0.031281	0.007019	0.027466	-0.014343	-0.063477	0.038452	-0.026703	0.057678	-0.001984	-0.6282	0.12039	-0.003662	-0.017395
0.855	0.005341	-0.013275	0.004425	0.007019	-0.042572	0.018616	-0.057373	0.003967	0.1593	0.007629	0.006866	0.006561	0.011292	-0.008545	-0.056458	-0.003357	0.009003	0.025024	0.73776	-0.1152	-0.001068	0.020447	-0.015717	-0.10254	0.02533	-0.0177	0.016937	-0.000916	0.28244	0.02182	-0.002441	-0.007782
